<?xml version="1.0" encoding="UTF-8"?> <!-- Generator: Adobe Illustrator 26.5.0, SVG Export Plug-In . SVG Version: 6.00 Build 0) --> <svg xmlns="http://www.w3.org/2000/svg" xmlns:xlink="http://www.w3.org/1999/xlink" version="1.1" id="Layer_1" x="0px" y="0px" viewBox="0 0 901.77 151.2" style="enable-background:new 0 0 901.77 151.2;" xml:space="preserve"> <style type="text/css"> .st0{fill:#101119;} .st1{display:none;fill:#FFFFFF;} .st2{display:none;} .st3{display:inline;} .st4{display:inline;clip-path:url(#SVGID_00000122682137530068445990000014599047179108023965_);fill:url(#SVGID_00000012438781644301089300000013283591716151661453_);} .st5{display:none;opacity:0.15;} .st6{clip-path:url(#SVGID_00000003814845011281555890000012738529274413607062_);fill:#231F20;} .st7{display:none;fill:#101119;} .st8{clip-path:url(#SVGID_00000025403828176587986120000001779443707169297800_);fill-rule:evenodd;clip-rule:evenodd;fill:#101119;} .st9{clip-path:url(#SVGID_00000013903188493405230770000010200551987978347681_);fill:#C29547;} .st10{clip-path:url(#SVGID_00000142141341142945583220000006297047473119332749_);fill:#C29547;} .st11{display:none;fill:#C29547;} .st12{fill:#C29547;} .st13{display:none;opacity:0.5;fill:#101119;} .st14{fill:#FFFFFF;} </style> <g> <path class="st0" d="M881.54,89.53c0,24.11-19.98,43.69-44.66,43.69H64.67c-24.66,0-44.65-19.58-44.65-43.69V62.82 c0-24.1,19.98-43.65,44.65-43.65h772.21c24.67,0,44.66,19.55,44.66,43.65V89.53z"></path> <path class="st1" d="M450.46,347.64c-67.73,0-133.07-19.97-188.96-57.74c-52.76-35.65-91.89-82.74-117.67-140.62H59.67 c-30.34,0-57.2-26.42-57.2-56.21V65.95c0-29.78,24.67-62.54,54.99-62.54h55.05c-0.01-0.77-0.01-1.53-0.01-2.31 c0-45.61,8.93-81.33,26.56-123.02c17.03-40.25,41.41-76.39,72.43-107.43c31.04-31.04,67.19-55.4,107.42-72.43 c41.68-17.62,85.93-26.57,131.55-26.57c45.63,0,89.91,8.95,131.59,26.57c40.23,17.03,76.38,41.39,107.41,72.43 c31.04,31.04,55.41,67.18,72.45,107.43c17.61,41.68,26.56,77.4,26.56,123.02c0,0.78-0.01,1.54-0.01,2.31h55.8 c30.36,0,55.04,32.76,55.04,62.54v27.11c0,29.8-22.49,56.21-52.84,56.21h-84.94c-25.76,57.87-69.28,104.97-122.04,140.62 C583.56,327.67,518.22,347.64,450.46,347.64z"></path> <g> <path class="st1" d="M730.16,10.37c0,154.45-125.19,279.65-279.62,279.65c-154.45,0-279.66-125.2-279.66-279.65 c0-154.43,125.21-279.61,279.66-279.61C604.97-269.24,730.16-144.06,730.16,10.37"></path> <g class="st2"> <defs> <path id="SVGID_1_" d="M220.87,10.37c0,126.87,102.81,229.68,229.65,229.68c126.84,0,229.67-102.82,229.67-229.68 c0-126.81-102.84-229.66-229.67-229.66C323.68-219.3,220.87-116.45,220.87,10.37"></path> </defs> <clipPath id="SVGID_00000181057886599518728320000010642548361544541866_" class="st3"> <use xlink:href="#SVGID_1_" style="overflow:visible;"></use> </clipPath> <linearGradient id="SVGID_00000174597159967650382220000012404348913935600030_" gradientUnits="userSpaceOnUse" x1="-236.5714" y1="224.1514" x2="-227.4417" y2="224.1514" gradientTransform="matrix(0 -50.3135 -50.3135 0 11728.374 -11662.6855)"> <stop offset="0" style="stop-color:#231F20"></stop> <stop offset="0.0711" style="stop-color:#272222"></stop> <stop offset="0.164" style="stop-color:#322C28"></stop> <stop offset="0.269" style="stop-color:#453B31"></stop> <stop offset="0.3829" style="stop-color:#62513B"></stop> <stop offset="0.5026" style="stop-color:#8D7145"></stop> <stop offset="0.6012" style="stop-color:#BC9249"></stop> <stop offset="0.6723" style="stop-color:#BF9448"></stop> <stop offset="1" style="stop-color:#C29547"></stop> </linearGradient> <rect x="220.87" y="-219.3" style="display:inline;clip-path:url(#SVGID_00000181057886599518728320000010642548361544541866_);fill:url(#SVGID_00000174597159967650382220000012404348913935600030_);" width="459.33" height="459.35"></rect> </g> <g class="st5"> <g class="st3"> <defs> <rect id="SVGID_00000077309660861897124750000012107872793970726586_" x="120.82" y="-318.1" width="656.96" height="656.95"></rect> </defs> <clipPath id="SVGID_00000063618756396972558590000013596538389421742233_"> <use xlink:href="#SVGID_00000077309660861897124750000012107872793970726586_" style="overflow:visible;"></use> </clipPath> <polygon style="clip-path:url(#SVGID_00000063618756396972558590000013596538389421742233_);fill:#231F20;" points=" 449.99,-318.1 463.28,9.9 437.71,9.9 "></polygon> <polygon style="clip-path:url(#SVGID_00000063618756396972558590000013596538389421742233_);fill:#231F20;" points=" 682.04,-221.42 459.52,19.93 441.45,1.85 "></polygon> <polygon style="clip-path:url(#SVGID_00000063618756396972558590000013596538389421742233_);fill:#231F20;" points=" 777.78,11.07 449.79,24.34 449.79,-1.21 "></polygon> <polygon style="clip-path:url(#SVGID_00000063618756396972558590000013596538389421742233_);fill:#231F20;" points=" 681.09,243.12 439.77,20.59 457.82,2.53 "></polygon> <polygon style="clip-path:url(#SVGID_00000063618756396972558590000013596538389421742233_);fill:#231F20;" points=" 448.61,338.85 435.32,10.84 460.88,10.84 "></polygon> <polygon style="clip-path:url(#SVGID_00000063618756396972558590000013596538389421742233_);fill:#231F20;" points=" 216.54,242.14 439.09,0.83 457.15,18.92 "></polygon> <polygon style="clip-path:url(#SVGID_00000063618756396972558590000013596538389421742233_);fill:#231F20;" points=" 120.82,9.67 448.83,-3.59 448.83,21.98 "></polygon> <polygon style="clip-path:url(#SVGID_00000063618756396972558590000013596538389421742233_);fill:#231F20;" points=" 217.54,-222.38 458.85,0.17 440.79,18.25 "></polygon> <polygon style="clip-path:url(#SVGID_00000063618756396972558590000013596538389421742233_);fill:#231F20;" points=" 579.86,-290.09 462.62,16.54 439.13,6.45 "></polygon> <polygon style="clip-path:url(#SVGID_00000063618756396972558590000013596538389421742233_);fill:#231F20;" points=" 754.92,-109.62 455.19,24.26 445.73,0.52 "></polygon> <polygon style="clip-path:url(#SVGID_00000063618756396972558590000013596538389421742233_);fill:#231F20;" points=" 751.1,141.73 444.51,24.47 454.6,0.98 "></polygon> <polygon style="clip-path:url(#SVGID_00000063618756396972558590000013596538389421742233_);fill:#231F20;" points=" 570.67,316.76 436.78,17.06 460.51,7.61 "></polygon> <polygon style="clip-path:url(#SVGID_00000063618756396972558590000013596538389421742233_);fill:#231F20;" points=" 319.3,312.98 436.57,6.38 460.05,16.47 "></polygon> <polygon style="clip-path:url(#SVGID_00000063618756396972558590000013596538389421742233_);fill:#231F20;" points=" 144.26,132.55 443.99,-1.34 453.47,22.38 "></polygon> <polygon style="clip-path:url(#SVGID_00000063618756396972558590000013596538389421742233_);fill:#231F20;" points=" 148.04,-118.83 454.66,-1.58 444.58,21.9 "></polygon> <polygon style="clip-path:url(#SVGID_00000063618756396972558590000013596538389421742233_);fill:#231F20;" points=" 328.52,-293.89 462.38,5.87 438.64,15.31 "></polygon> <polygon style="clip-path:url(#SVGID_00000063618756396972558590000013596538389421742233_);fill:#231F20;" points=" 520.98,-309.28 463.56,13.93 438.59,8.43 "></polygon> <polygon style="clip-path:url(#SVGID_00000063618756396972558590000013596538389421742233_);fill:#231F20;" points=" 726.87,-165 457.72,22.89 443.95,1.37 "></polygon> <polygon style="clip-path:url(#SVGID_00000063618756396972558590000013596538389421742233_);fill:#231F20;" points=" 770.45,82.58 447.23,25.12 452.73,0.17 "></polygon> <polygon style="clip-path:url(#SVGID_00000063618756396972558590000013596538389421742233_);fill:#231F20;" points=" 626.19,288.47 438.27,19.31 459.81,5.54 "></polygon> <polygon style="clip-path:url(#SVGID_00000063618756396972558590000013596538389421742233_);fill:#231F20;" points=" 378.58,332.05 436.03,8.83 461.01,14.35 "></polygon> <polygon style="clip-path:url(#SVGID_00000063618756396972558590000013596538389421742233_);fill:#231F20;" points=" 172.69,187.77 441.87,-0.14 455.64,21.39 "></polygon> <polygon style="clip-path:url(#SVGID_00000063618756396972558590000013596538389421742233_);fill:#231F20;" points=" 129.13,-59.82 452.32,-2.36 446.82,22.58 "></polygon> <polygon style="clip-path:url(#SVGID_00000063618756396972558590000013596538389421742233_);fill:#231F20;" points=" 273.39,-265.73 461.29,3.45 439.79,17.22 "></polygon> <polygon style="clip-path:url(#SVGID_00000063618756396972558590000013596538389421742233_);fill:#231F20;" points=" 628.68,-263.73 461.38,18.7 439.94,4.8 "></polygon> <polygon style="clip-path:url(#SVGID_00000063618756396972558590000013596538389421742233_);fill:#231F20;" points=" 770.79,-56.35 452.78,25.05 447.44,0.07 "></polygon> <polygon style="clip-path:url(#SVGID_00000063618756396972558590000013596538389421742233_);fill:#231F20;" points=" 724.61,190.78 442.18,23.46 456.1,2.02 "></polygon> <polygon style="clip-path:url(#SVGID_00000063618756396972558590000013596538389421742233_);fill:#231F20;" points=" 517.24,332.88 435.83,14.87 460.82,9.55 "></polygon> <polygon style="clip-path:url(#SVGID_00000063618756396972558590000013596538389421742233_);fill:#231F20;" points=" 270.1,286.68 437.44,4.29 458.85,18.18 "></polygon> <polygon style="clip-path:url(#SVGID_00000063618756396972558590000013596538389421742233_);fill:#231F20;" points=" 128.02,79.32 446.02,-2.05 451.35,22.89 "></polygon> <polygon style="clip-path:url(#SVGID_00000063618756396972558590000013596538389421742233_);fill:#231F20;" points=" 174.17,-167.8 456.59,-0.49 442.71,20.96 "></polygon> <polygon style="clip-path:url(#SVGID_00000063618756396972558590000013596538389421742233_);fill:#231F20;" points=" 381.57,-309.92 462.97,8.12 437.98,13.45 "></polygon> </g> </g> <path class="st7" d="M126.54,10.37c0-178.67,144.85-323.54,323.53-323.54S773.61-168.3,773.61,10.37 c0,178.68-144.85,323.54-323.53,323.54S126.54,189.04,126.54,10.37 M450.07,239.92c126.77,0,229.53-102.77,229.53-229.55 c0-126.76-102.75-229.52-229.53-229.52c-126.78,0-229.54,102.76-229.54,229.52C220.53,137.15,323.29,239.92,450.07,239.92"></path> <g class="st2"> <g class="st3"> <defs> <rect id="SVGID_00000145767458622105293160000008590346423880748676_" x="269.06" y="-213.08" width="369.75" height="406.69"></rect> </defs> <clipPath id="SVGID_00000134232387016457895420000008820160282940821941_"> <use xlink:href="#SVGID_00000145767458622105293160000008590346423880748676_" style="overflow:visible;"></use> </clipPath> <path style="clip-path:url(#SVGID_00000134232387016457895420000008820160282940821941_);fill-rule:evenodd;clip-rule:evenodd;fill:#101119;" d=" M402.26-33.83H389.3l-53.26-128.88L289.86-33.83h-16.9c0,0-3.9,0-3.9,3.31c0,3.36,0,5.15,2.93,5.15h9.28c0,0,3.24,0,3.24,2.18 v1.54c0,0-0.49,3.26,3.91,3.26h9.42c0,0,2.29-0.41,3.3,0.82c1.01,1.29,1.68,1.59,2.87,1.99c1.21,0.44,2.71,3.87,4.07,4.09 c1.4,0.2,2.4,0,2.4,0h57.58c0,0,2.4,0,3.69-1.35c1.29-1.38,2.1-0.82,3.29-3.15c1.2-2.3,3.76-1.89,4.47-1.89h9.15 c0,0,2.49-0.52,2.49-2.82v-2.19c0,0-0.3-2.41,2.4-2.41h7.53c0,0,4.9,0.62,4.9-3.56C405.97-33,405.76-33.83,402.26-33.83 M334.31-33.83h-39.54l39.54-110.98V-33.83z M337.72-33.83v-112.45l45.97,112.45H337.72z"></path> <path style="clip-path:url(#SVGID_00000134232387016457895420000008820160282940821941_);fill-rule:evenodd;clip-rule:evenodd;fill:#101119;" d=" M635.08-8.91h-12.95L568.88-137.8L522.7-8.91h-16.9c0,0-3.93,0-3.93,3.36c0,3.32,0,5.09,2.94,5.09h9.29c0,0,3.26,0,3.26,2.21 v1.57c0,0-0.51,3.21,3.87,3.21h9.45c0,0,2.3-0.41,3.29,0.89c0.98,1.2,2.46,2.13,3.65,2.56c1.18,0.38,2.77,3.06,4.18,3.23 c1.4,0.24,2.6,0.24,2.6,0.24h56.49c0,0,2.39,0,3.69-1.37c1.29-1.35,2.11-0.84,3.28-3.14c1.18-2.3,3.78-1.87,4.48-1.87h9.14 c0,0,2.5-0.55,2.5-2.81V2.09c0,0-0.33-2.43,2.39-2.43h7.56c0,0,4.87,0.62,4.87-3.57C638.81-8.08,638.58-8.91,635.08-8.91 M527.57-8.91l39.57-110.97V-8.91H527.57z M570.58-8.91v-112.45L616.53-8.91H570.58z"></path> <path style="clip-path:url(#SVGID_00000134232387016457895420000008820160282940821941_);fill-rule:evenodd;clip-rule:evenodd;fill:#101119;" d=" M464.64-139.11c0,0,6.05-2.73,14.01-3.33c3.3-0.26,16.08,0.56,25.33,6.54c9.26,5.98,19.23,12.85,35.46,14.68 c16.24,1.81,23.9-4.64,28.69-7.7c1.6-1.07,3.29-2.99,4.55-5.14c2.6-2.41,4.06-6.1,3.59-10.06c-0.81-6.61-6.55-11.51-12.82-10.88 c-6.26,0.52-10.71,6.34-9.89,12.93c0.2,1.79,0.82,3.47,1.68,4.93c-3.99,0.96-11.74-0.39-23.17-7.08 c-16.05-9.39-8.53-7.64-20.94-16.12c-12.39-8.46-34.29-4.22-34.29-4.22l-4.2,0.38c0,0-3.38,1.52-5.56-2.29 c0,0-22.93-12.44-29.19-4.64c-3.31,4.19-9.16,1.71-9.16,1.71c-7.66-0.62-14.16-5.57-26.64-4.44 c-12.5,1.15-15.29,4.99-20.32,7.62c-4.71,2.43-7.69,4.72-20.43,6.7c-8.08,1.24-11.72,0.54-13.69-1.57 c1.68-2.31,2.53-5.3,2.12-8.48c-0.78-6.6-6.52-11.49-12.8-10.93c-6.27,0.56-10.71,6.4-9.89,12.98c0.22,1.77,0.81,3.42,1.65,4.88 c1.08,3.76,4.38,9.2,8.96,12.79c6.28,4.96,16.91,9.28,28.9,9.28c12,0.06,23.03-6.02,36.05-8.1c12.99-2.1,18.39-1.23,23.39,0.3 c5.03,1.51,3.88,4.3,3.88,4.3s7.09,6.38,20.52,6.38C463.91-137.69,458.05-136.19,464.64-139.11"></path> <path style="clip-path:url(#SVGID_00000134232387016457895420000008820160282940821941_);fill-rule:evenodd;clip-rule:evenodd;fill:#101119;" d=" M473.06-137.11c0,0,0.3,2.13-2.12,8.81c-2.42,6.67-11.46,8.95-15.3,9.84c0,0-9.38,0.05-13.57-0.89 c-4.15-0.91-14.56-6.82-14.97-14.74c-0.44-7.92,0.62-11.89,0.62-11.89c1.99-17.3,11-27.09,11-27.09 c0.81-1.15,1.66-2.77,2.82-5.01c3.93-7.71,2.82-16.84,0.65-20.76c-2.23-3.92-1.63-10.91,2.67-13.17 c1.77-0.9,5.34-1.07,5.34-1.07s3.8-0.24,6.21,2.73c3.27,4.01,2.75,7.95,0.91,11.14c-1.83,3.15-2.13,6.69-1.83,9.73 c0.31,3.07,0.3,6.3,3.05,10.98c3.3,5.67,6.32,7.66,8.86,13.59C467.4-164.91,472.52-155.55,473.06-137.11"></path> <path style="clip-path:url(#SVGID_00000134232387016457895420000008820160282940821941_);fill-rule:evenodd;clip-rule:evenodd;fill:#101119;" d=" M444.73-121.34v71.69c0,6.36-0.4,5.28-3.94,12.3c-3.57,7.05,0.41,9.69,0.41,13.41c0,3.74-7.34-2.59-7.34,22.06 c0,24.61,7.51,22.61,7.51,27.24c0,5.18-5.94,129.29-8.99,129.29h-42.49c0,0-2.3,0-2.3,2.66v8.15c0,0,0.24,3.26-3.75,3.26h-20.9 c0,0-2.95,0-2.95,3.54v6.16c0,0-0.85,1.99-3.98,1.99h-16.76l-5.4,8.79c0,0-2.76,4.4,3.11,4.4h226.35c0,0,4.56,0.52,1.93-4.48 c-2.59-5-7.55-9.54-7.55-9.54h-15.24c0,0-2.53,0.33-2.53-2.33v-6.35c0,0,0.81-2.98-2.62-2.98h-16.93c0,0-2.54,0.65-2.54-2.43 v-8.04c0,0-0.07-2.88-3.11-2.88h-48.41c0,0-6.85-122.93-7.16-129.5c-0.31-6.57,6.87,0,6.87-27.77c0-24.05-6.05-18.85-5.96-20.97 c0.08-2.76,2.01-4.9,2.15-9.16c0.05-4.19-1.34-5.7-2.56-7.26c-1.19-1.62-2.6-3.01-2.6-9.47v-71.71L444.73-121.34z"></path> </g> </g> <g class="st2"> <g class="st3"> <defs> <rect id="SVGID_00000062882854458113852660000005432508516305069186_" x="121.77" y="-317.92" width="656.58" height="656.58"></rect> </defs> <clipPath id="SVGID_00000099662202655465540990000001808191725545711295_"> <use xlink:href="#SVGID_00000062882854458113852660000005432508516305069186_" style="overflow:visible;"></use> </clipPath> <path style="clip-path:url(#SVGID_00000099662202655465540990000001808191725545711295_);fill:#C29547;" d="M450.07,338.65 c-181.01,0-328.3-147.26-328.3-328.29c0-181.01,147.29-328.29,328.3-328.29c181.02,0,328.28,147.28,328.28,328.29 C778.35,191.39,631.09,338.65,450.07,338.65z M450.07-308.42c-175.78,0-318.79,143-318.79,318.79 c0,175.79,143.01,318.81,318.79,318.81c175.76,0,318.8-143.02,318.8-318.81C768.87-165.42,625.84-308.42,450.07-308.42z"></path> </g> </g> <g class="st2"> <g class="st3"> <defs> <rect id="SVGID_00000019662612065147235090000008990973108771217836_" x="216.93" y="-222.79" width="466.3" height="466.32"></rect> </defs> <clipPath id="SVGID_00000023277782487635050580000017648941257751132313_"> <use xlink:href="#SVGID_00000019662612065147235090000008990973108771217836_" style="overflow:visible;"></use> </clipPath> <path style="clip-path:url(#SVGID_00000023277782487635050580000017648941257751132313_);fill:#C29547;" d="M450.07,243.54 c-128.55,0-233.15-104.6-233.15-233.17c0-128.53,104.6-233.15,233.15-233.15c128.56,0,233.16,104.62,233.16,233.15 C683.23,138.94,578.63,243.54,450.07,243.54z M450.07-215.54c-124.58,0-225.92,101.34-225.92,225.91 c0,124.58,101.34,225.91,225.92,225.91c124.58,0,225.93-101.33,225.93-225.91C676.01-114.21,574.65-215.54,450.07-215.54z"></path> </g> </g> <path class="st11" d="M450.07,337.81c-180.55,0-327.42-146.88-327.42-327.45c0-180.55,146.87-327.43,327.42-327.43 c180.52,0,327.42,146.88,327.42,327.43C777.49,190.93,630.59,337.81,450.07,337.81z M450.07-309.28 c-176.27,0-319.63,143.41-319.63,319.64c0,176.27,143.36,319.66,319.63,319.66c176.24,0,319.63-143.39,319.63-319.66 C769.7-165.87,626.31-309.28,450.07-309.28z"></path> <path class="st11" d="M450.07,242.67c-128.09,0-232.31-104.21-232.31-232.31c0-128.09,104.22-232.3,232.31-232.3 c128.09,0,232.29,104.2,232.29,232.3C682.36,138.46,578.16,242.67,450.07,242.67z M450.07-216.39 c-125.05,0-226.76,101.73-226.76,226.75c0,125.05,101.71,226.78,226.76,226.78c125.02,0,226.78-101.73,226.78-226.78 C676.86-114.66,575.1-216.39,450.07-216.39z"></path> <path class="st1" d="M268.04,179.16c9.97,10.77,11.03,27.51,0.79,37.01c-10.27,9.51-26.91,7.13-36.86-3.58 c-10.06-10.84-10.71-27.69-0.92-36.78C242.01,165.67,258.56,168.97,268.04,179.16 M235.15,209.7c8.22,8.82,21.8,10.38,30.1,2.68 c8.14-7.55,8.03-21.23-0.37-30.31c-7.99-8.65-21.6-10.45-30.27-2.43C226.66,187.05,226.87,200.78,235.15,209.7"></path> <polygon class="st1" points="291.14,203.3 296.96,207.32 298.42,256.32 298.54,256.41 320.99,224.03 325.3,227.01 298.22,266.03 293.91,263.05 292.28,211.07 292.18,211 268.37,245.31 264.05,242.3 "></polygon> <polygon class="st1" points="347.95,271.97 342.23,235.97 347.63,238.02 352.12,268.18 375.88,248.73 381.2,250.76 352.84,273.82 347.23,288.65 342.33,286.79 "></polygon> <path class="st1" d="M407.31,254.97c14.48,2.53,25.45,15.16,23.06,28.96c-2.37,13.76-17.04,21.95-31.45,19.47 c-14.61-2.53-25.32-15.54-23.05-28.64C378.42,259.98,393.61,252.6,407.31,254.97 M399.66,299.18c11.89,2.05,23.63-4.96,25.57-16.1 c1.91-10.93-6.47-21.77-18.64-23.87c-11.62-2.02-23.56,4.81-25.59,16.43C379.18,286.32,387.69,297.08,399.66,299.18"></path> <path class="st1" d="M445.74,259.78l0.96,29.56c0.11,3.43,0.8,6.58,2.05,8.52c3.33,5.24,8.5,5.56,10.99,5.51 c2.46-0.09,7.57-0.78,10.57-6.19c1.16-2,1.63-5.21,1.52-8.64l-0.95-29.57l5.21-0.17l0.97,29.58c0.1,3.95-0.49,7.39-1.67,9.95 c-3.36,7.21-10.66,9.17-15.52,9.34c-4.88,0.13-12.26-1.36-16.11-8.32c-1.32-2.49-2.15-5.86-2.29-9.83l-0.92-29.58L445.74,259.78z"></path> <path class="st1" d="M484.57,257.67l12.99-2.65c6.84-1.42,10.36-1.36,12.92-0.84c6.26,1.24,10.71,5.67,11.89,11.36 c1.39,6.74-2.54,14.7-12.29,17.28l18,14.38l-6.42,1.33l-21.69-17.48c6.5-1.34,8.72-1.85,10.84-2.97 c5.32-2.59,7.25-7.45,6.41-11.61c-0.76-3.65-3.83-6.92-7.45-7.77c-3.34-0.82-6.03-0.58-10.32,0.31l-8.92,1.84l8.73,42.3 l-5.12,1.08L484.57,257.67z"></path> <path class="st1" d="M559.32,272.12c2.79,5.29,8.17,7.02,14,4.32c5-2.31,7.94-7.93,5.59-12.99c-3.07-6.64-11.25-4.9-14.86-4.29 c-4.85,0.82-13.57,2.89-17.53-5.66c-3.14-6.69,0.45-14.29,7.92-17.75c7.76-3.6,15.66-0.68,18.58,5.6l-4.74,2.22 c-2.04-4.37-7.53-5.99-12.02-3.95c-5.44,2.52-6.81,7.78-5.09,11.52c2.43,5.21,8.04,4.1,15.03,2.86 c12.98-2.54,16.77,5.79,17.36,7.08c3.08,6.64-0.02,15.36-8.43,19.28c-6.13,2.81-15.93,3.36-20.53-6.05L559.32,272.12z"></path> <polygon class="st1" points="574.65,226.22 579.13,223.55 603.33,264.43 598.83,267.06 "></polygon> <path class="st1" d="M587.7,219.16l11.97-9.46c5.03-3.92,10.9-6.8,15.77-7.44c10.45-1.57,18.16,3.86,21.7,8.35 c2.71,3.47,7.09,12.11,2.87,22.81c-1.78,4.6-5.87,9.61-10.94,13.59l-11.96,9.44L587.7,219.16z M618.53,249.84l5.92-4.67 c3.71-2.94,9.39-7.39,11.73-14.12c0.96-3.88,1.83-10.87-3.28-17.39c-3.9-4.94-10.24-7.35-16.71-6.83 c-5.38,0.72-9.77,3.04-15.79,7.81l-5.94,4.66L618.53,249.84z"></path> <polygon class="st1" points="626.42,186.95 645.49,165.67 648.7,168.54 633.09,185.94 645.82,197.32 660.89,180.52 664.11,183.35 649.07,200.19 662.06,211.89 677.66,194.47 680.87,197.34 661.78,218.64 "></polygon> <polygon class="st1" points="156.76,-27.09 157.45,-32.29 204.51,-25.93 203.81,-20.71 "></polygon> <polygon class="st1" points="159.84,-50.07 161.76,-56.86 207.58,-74.22 207.65,-74.36 169.73,-85.07 171.12,-90.08 216.82,-77.2 215.41,-72.19 166.82,-53.7 166.77,-53.54 206.96,-42.2 205.55,-37.18 "></polygon> <polygon class="st1" points="221.17,-121.34 184.69,-121.82 187.64,-126.79 218.15,-126.1 203,-152.82 205.91,-157.72 223.84,-125.86 237.48,-117.8 234.83,-113.27 "></polygon> <path class="st1" d="M229.32-187.58c9.81-10.94,26.37-13.56,36.77-4.16c10.41,9.32,9.59,26.12-0.21,37 c-9.88,11.04-26.59,13.22-36.51,4.29C218.25-160.45,220.03-177.22,229.32-187.58 M262.7-157.61c8.07-8.97,8.36-22.67-0.04-30.19 c-8.26-7.44-21.89-6.08-30.15,3.09c-7.86,8.76-8.44,22.49,0.35,30.37C240.95-147.08,254.58-148.55,262.7-157.61"></path> <path class="st1" d="M267.01-222.14l17.32,24.01c2.03,2.79,4.31,5,6.46,5.94c5.69,2.46,10.15-0.16,12.17-1.58 c2-1.47,5.87-4.88,5.35-11.08c-0.2-2.31-1.58-5.18-3.59-7.97l-17.32-24.02l4.23-3.06l17.3,23.99c2.35,3.24,3.76,6.41,4.18,9.17 c1.27,7.9-3.68,13.61-7.64,16.46c-3.96,2.83-10.91,5.76-17.99,2.07c-2.53-1.29-5.06-3.65-7.38-6.91l-17.31-23.97L267.01-222.14z"></path> <path class="st1" d="M308.08-249.49l11.98-5.73c6.3-2.98,9.78-3.79,12.38-3.88c6.36-0.27,11.73,2.93,14.22,8.21 c2.96,6.2,1.05,14.84-7.8,19.74l20.93,9.66l-5.92,2.81l-25.25-11.81c5.98-2.84,7.99-3.87,9.82-5.49 c4.52-3.74,5.28-8.93,3.46-12.76c-1.63-3.37-5.37-5.84-9.11-5.77c-3.4,0-5.96,0.85-9.94,2.73l-8.21,3.94l18.56,38.98l-4.69,2.25 L308.08-249.49z"></path> <path class="st1" d="M434.11-250.92c-4.04,10.09-13.37,15.56-21.69,16.91c-14.44,2.29-28.63-6.05-30.82-19.94 c-2.21-13.88,8.34-26.21,23.04-28.54c13.24-2.11,22.96,5,25.67,9.05l-5.77,0.92c-6.9-6.79-16.15-6.19-19.27-5.71 c-12.08,1.91-20.17,13.06-18.52,23.53c1.75,10.97,13.76,18.21,24.92,16.45c2.58-0.39,10.96-2.06,16.65-11.76L434.11-250.92z"></path> <path class="st1" d="M473.06-285.1c14.63,1.14,26.75,12.73,25.69,26.67c-1.08,13.94-14.94,23.5-29.51,22.37 c-14.79-1.17-26.65-13.08-25.63-26.4C444.78-277.39,459.18-286.17,473.06-285.1 M469.58-240.37c12.04,0.93,23.08-7.15,23.96-18.4 c0.85-11.1-8.49-21.1-20.8-22.05c-11.77-0.9-22.98,6.97-23.91,18.74C447.99-251.24,457.48-241.32,469.58-240.37"></path> <polygon class="st1" points="520.05,-278.03 527.66,-275.42 532.51,-231.01 563.66,-263.09 571.27,-260.48 555.86,-215.54 550.91,-217.25 564.64,-257.27 564.49,-257.3 532.28,-223.61 528.08,-225.08 523.46,-271.38 523.3,-271.42 509.59,-231.42 504.64,-233.11 "></polygon> <polygon class="st1" points="591.37,-250.48 598.06,-246.01 591.37,-201.85 629.7,-224.89 636.37,-220.39 609.99,-180.94 605.63,-183.81 629.13,-218.95 629.02,-219.02 589.28,-194.76 585.59,-197.26 592.97,-243.18 592.85,-243.25 569.33,-208.1 564.99,-211.02 "></polygon> <path class="st1" d="M655.38-202.26l-21.44,20.35c-2.51,2.38-4.42,4.97-5.04,7.23c-1.67,5.95,1.54,10.05,3.22,11.82 c1.7,1.78,5.61,5.19,11.67,3.83c2.27-0.51,4.93-2.27,7.45-4.66l21.47-20.37l3.61,3.78l-21.47,20.38 c-2.89,2.74-5.87,4.58-8.56,5.39c-7.62,2.29-13.92-1.85-17.32-5.35c-3.32-3.54-7.16-10.07-4.43-17.59 c0.93-2.63,2.89-5.51,5.78-8.22l21.48-20.38L655.38-202.26z"></path> <polygon class="st1" points="688.82,-164.67 692.57,-158.68 674.77,-113.02 674.84,-112.9 708.18,-133.91 710.97,-129.49 670.81,-104.16 668.02,-108.56 686.84,-157.1 686.75,-157.22 651.4,-134.92 648.64,-139.33 "></polygon> <polygon class="st1" points="718.34,-113.08 720.48,-108.29 677.14,-88.84 675.02,-93.6 "></polygon> <polygon class="st1" points="724.98,-85.1 721.13,-96.48 725.22,-97.84 734.52,-70.19 730.46,-68.83 726.64,-80.13 685.69,-66.39 684.03,-71.3 "></polygon> <polygon class="st1" points="709,-39.05 736.96,-62.47 737.98,-56.77 714.39,-37.44 743.27,-27.05 744.27,-21.39 709.91,-33.93 694.32,-31.13 693.4,-36.25 "></polygon> <g> <g> <path class="st1" d="M63.83,139.76c-28.26,0-51.23-22.54-51.23-50.24V62.8c0-27.67,22.97-50.21,51.23-50.21h774.38 c28.26,0,51.24,22.54,51.24,50.21v26.73c0,27.69-22.97,50.24-51.24,50.24H63.83z"></path> <path class="st12" d="M838.21,141.81H63.83c-29.39,0-53.28-23.45-53.28-52.28V62.8c0-28.81,23.9-52.26,53.28-52.26h774.38 c29.4,0,53.28,23.45,53.28,52.26v26.73C891.5,118.36,867.61,141.81,838.21,141.81z M63.83,14.65c-27.13,0-49.2,21.61-49.2,48.15 v26.73c0,26.58,22.06,48.19,49.2,48.19h774.38c27.13,0,49.18-21.61,49.18-48.19V62.8c0-26.54-22.05-48.15-49.18-48.15H63.83z"></path> </g> <path class="st13" d="M882.19,89.53c0,24.11-19.98,43.69-44.66,43.69H65.33c-24.66,0-44.65-19.58-44.65-43.69V62.82 c0-24.1,19.98-43.65,44.65-43.65h772.21c24.67,0,44.66,19.55,44.66,43.65V89.53z"></path> </g> <g> <path class="st14" d="M135.33,105.54c0.32,0.39,1.16,0.66,2.53,0.79v1.5h-22.17v-1.5c1.37-0.13,2.2-0.4,2.54-0.79 c0.31-0.37,0.49-0.85,0.49-1.39V46.82c0-0.57-0.18-1.05-0.49-1.44c-0.34-0.36-1.17-0.63-2.54-0.78v-1.47h39.41 c7.95,0,13.74,1.64,17.32,5.01c3.62,3.31,5.39,8.44,5.39,15.41c0,5.65-1.44,10.09-4.35,13.28c-2.9,3.19-6.6,5.49-11.05,6.87 l12.7,20.46c0.89,1.44,1.94,2.18,3.15,2.18v1.5h-22.43v-1.5c1.62-0.08,2.39-0.82,2.39-2.18c0-0.19-0.29-0.74-0.85-1.74 c-0.59-0.98-1.29-2.18-2.15-3.56c-0.85-1.4-1.8-2.91-2.87-4.5c-1.02-1.63-2.05-3.14-3.01-4.59c-0.96-1.51-1.81-2.79-2.53-3.94 c-0.72-1.17-1.17-1.94-1.39-2.36h-10.55v20.69C134.85,104.69,135.02,105.16,135.33,105.54 M152.94,70.44 c3.2,0,5.34-0.7,6.52-2.02c1.19-1.39,1.77-2.96,1.77-4.76c0-1.8-0.58-3.37-1.77-4.71c-1.18-1.36-3.32-2.04-6.52-2.04h-18.09 v13.54H152.94z"></path> <path class="st14" d="M194.48,55.68c-0.63-0.25-1.36-0.4-2.21-0.5V53.7h19.36v1.48c-0.36,0.1-0.75,0.25-1.19,0.5 c-0.41,0.25-0.61,0.82-0.61,1.73v29.87c0,3.09,0.95,5.36,2.94,6.7c1.97,1.35,4.58,2.03,7.81,2.03c3.24,0,5.82-0.68,7.82-2.03 c1.98-1.34,2.95-3.6,2.95-6.7V57.4c0-0.91-0.2-1.48-0.66-1.73c-0.43-0.25-0.83-0.4-1.19-0.5V53.7h19.39v1.48 c-0.85,0.1-1.57,0.25-2.19,0.5c-0.61,0.25-0.93,0.82-0.93,1.73v27.06c0,3.27-0.41,6.37-1.3,9.26c-0.84,2.93-2.25,5.47-4.17,7.63 c-1.96,2.16-4.53,3.84-7.78,5.05c-3.23,1.18-7.22,1.78-11.94,1.78c-4.74,0-8.74-0.6-11.97-1.78c-3.21-1.21-5.79-2.89-7.73-5.05 c-1.95-2.16-3.35-4.7-4.23-7.63c-0.83-2.89-1.27-5.99-1.27-9.26V57.4C195.37,56.5,195.08,55.93,194.48,55.68"></path> <path class="st14" d="M313.92,93.9h1.29v16.13h-1.1c-0.34-1.16-0.7-1.83-1.11-1.96c-0.41-0.17-1.02-0.25-1.9-0.25h-48.03v-1.5 c0.81-0.08,1.49-0.23,2.1-0.48c0.66-0.26,0.94-0.84,0.94-1.7V57.4c0-0.91-0.29-1.48-0.94-1.74c-0.61-0.24-1.29-0.39-2.1-0.49 V53.7h48.9c0.42,0,0.88-0.17,1.29-0.5c0.42-0.33,0.65-1.07,0.65-2.21h1.29v16.47h-1.29c0-1.22-0.22-2-0.65-2.4 c-0.41-0.35-0.87-0.53-1.29-0.53h-31.44v9.95h20.25c0.41,0,0.85-0.21,1.26-0.55c0.45-0.36,0.7-1.13,0.7-2.27h1.27v15.99h-1.27 c0-1.16-0.25-1.9-0.7-2.31c-0.41-0.34-0.85-0.52-1.26-0.52h-20.25V97h30.57C312.55,97,313.47,95.99,313.92,93.9"></path> <path class="st14" d="M505.92,93.3c0.55,0,0.99-0.19,1.28-0.58c0.3-0.33,0.5-1.05,0.66-2.11h1.28v19.52h-1.28 c-0.15-1.05-0.36-1.72-0.66-1.95c-0.29-0.27-0.73-0.36-1.28-0.36h-55.14v-1.5l31.01-48.68h-25.75c-0.56,0-0.98,0.17-1.29,0.55 c-0.3,0.34-0.48,1.12-0.63,2.25h-1.28V39.7h1.28c0.15,1.41,0.34,2.3,0.63,2.76c0.31,0.47,0.73,0.67,1.29,0.67h53.1v1.47 l-31.22,48.7H505.92z"></path> <path class="st14" d="M541.98,55.18c-1.07,0.1-1.92,0.25-2.52,0.5c-0.64,0.25-0.94,0.82-0.94,1.73v46.75 c0,0.86,0.31,1.44,0.94,1.7c0.6,0.25,1.46,0.4,2.52,0.49v1.49h-21.32v-1.49c1.08-0.09,1.92-0.24,2.53-0.49 c0.6-0.26,0.93-0.84,0.93-1.7V57.4c0-0.91-0.33-1.48-0.93-1.73c-0.61-0.25-1.46-0.4-2.53-0.5V53.7h21.32V55.18z"></path> <path class="st14" d="M558.15,55.68c-0.58-0.25-1.37-0.4-2.38-0.5V53.7h46.82c0.43,0,0.88-0.17,1.33-0.5 c0.38-0.33,0.63-1.07,0.63-2.21h1.3v16.97h-1.3c0-1.24-0.25-2-0.63-2.42c-0.45-0.35-0.9-0.54-1.33-0.54h-29.19v11.46h19.72 c0.46,0,0.88-0.17,1.29-0.5c0.43-0.33,0.68-1.09,0.68-2.22h1.27v16.5h-1.27c0-1.22-0.25-2.05-0.68-2.4 c-0.41-0.37-0.83-0.56-1.29-0.56h-19.72v16.88c0,0.86,0.33,1.44,0.88,1.7c0.58,0.25,1.31,0.4,2.16,0.48v1.5h-20.46v-1.5 c0.86-0.08,1.59-0.23,2.17-0.48c0.55-0.26,0.85-0.84,0.85-1.7V57.4C559,56.5,558.7,55.93,558.15,55.68"></path> <path class="st14" d="M618.02,55.68c-0.58-0.25-1.37-0.4-2.38-0.5V53.7h46.82c0.43,0,0.86-0.17,1.31-0.5 c0.45-0.33,0.64-1.07,0.64-2.21h1.29v16.97h-1.29c0-1.24-0.18-2-0.64-2.42c-0.45-0.35-0.88-0.54-1.31-0.54h-29.17v11.46h19.69 c0.45,0,0.9-0.17,1.3-0.5c0.44-0.33,0.65-1.09,0.65-2.22h1.31v16.5h-1.31c0-1.22-0.21-2.05-0.65-2.4 c-0.4-0.37-0.85-0.56-1.3-0.56h-19.69v16.88c0,0.86,0.31,1.44,0.88,1.7c0.56,0.25,1.29,0.4,2.16,0.48v1.5h-20.46v-1.5 c0.85-0.08,1.57-0.23,2.15-0.48c0.56-0.26,0.86-0.84,0.86-1.7V57.4C618.88,56.5,618.58,55.93,618.02,55.68"></path> <path class="st14" d="M678.2,55.68c-0.5-0.25-1.05-0.4-1.61-0.5V53.7h34.53c5.43,0,9.68,1.46,12.87,4.3 c3.21,2.87,4.83,7.16,4.83,12.79c0,4.43-1.16,7.92-3.41,10.5c-2.24,2.58-5.12,4.63-8.54,6.09l9.56,16.49 c0.38,0.67,0.89,1.2,1.57,1.71c0.66,0.5,1.44,0.73,2.21,0.73v1.5h-21.77v-1.5c0.5,0,1.07-0.08,1.69-0.29 c0.59-0.23,0.89-0.67,0.89-1.3c0-0.44-0.35-1.43-1.11-3.07c-0.78-1.64-1.61-3.43-2.58-5.29c-0.99-1.89-1.92-3.69-2.81-5.43 c-0.88-1.69-1.46-2.82-1.68-3.3h-10.35v16.5c0,0.86,0.29,1.44,0.81,1.7c0.56,0.25,1.25,0.4,2.03,0.48v1.5h-18.54v-1.5 c0.42-0.08,0.9-0.23,1.4-0.48c0.48-0.26,0.76-0.84,0.76-1.7V57.4C678.96,56.5,678.68,55.93,678.2,55.68 M707.81,77.32 c2.32,0,4.09-0.58,5.41-1.68c1.35-1.1,2.03-2.77,2.03-4.99c0-1.88-0.6-3.45-1.67-4.69c-1.17-1.32-3.31-1.92-6.53-1.92h-14.56 v13.28H707.81z"></path> <path class="st14" d="M783.62,106.33c0.23,0,0.48-0.04,0.84-0.11c0.36-0.07,0.54-0.42,0.54-1c0-0.32-0.13-0.84-0.36-1.55 c-0.25-0.67-0.54-1.42-0.9-2.24c-0.31-0.84-0.62-1.66-0.98-2.45c-0.37-0.84-0.68-1.53-0.85-2.1h-25 c-0.16,0.57-0.36,1.25-0.67,2.1c-0.36,0.79-0.69,1.61-1.07,2.45c-0.33,0.82-0.68,1.57-0.95,2.24c-0.29,0.71-0.46,1.22-0.46,1.55 c0,0.58,0.22,0.93,0.56,1c0.35,0.08,0.65,0.11,0.85,0.11v1.5h-16.16v-1.5c0.44,0,0.86-0.08,1.32-0.29 c0.42-0.23,0.7-0.53,0.85-0.95c2.16-5.71,4.33-11.42,6.58-17c2.2-5.61,4.23-10.7,5.97-15.26c1.74-4.54,3.22-8.33,4.34-11.31 c1.15-2.98,1.72-4.69,1.72-5.11c0-0.73-0.45-1.14-1.4-1.22V53.7h22.51v1.48c-0.91,0.09-1.39,0.5-1.39,1.22 c0,0.25,0.36,1.32,1.13,3.27c0.74,1.93,1.74,4.35,2.97,7.27c1.2,2.89,2.56,6.09,4.04,9.61c1.48,3.56,2.94,7.06,4.42,10.58 c1.45,3.56,2.84,6.88,4.14,10.04c1.31,3.15,2.33,5.79,3.1,7.92c0.18,0.42,0.46,0.72,0.87,0.95c0.42,0.21,0.86,0.29,1.32,0.29v1.5 h-17.89V106.33z M769.18,66.49l-8.83,21.52h17.89L769.18,66.49z"></path> <path class="st14" d="M415.39,81.91c-0.14-0.59-0.36-1-0.68-1.33c-0.33-0.26-0.91-0.41-1.7-0.41c-0.72,0-1.46,0.38-2.25,1.08 c-0.78,0.77-1.55,1.64-2.25,2.67c-0.72,1.03-1.37,2.06-1.88,3.14c-0.54,1.07-0.93,1.97-1.15,2.74c0.37,0.4,0.86,0.85,1.51,1.34 c0.63,0.47,1.29,0.95,2.04,1.34c0.74,0.4,1.46,0.77,2.16,1.05c0.71,0.29,1.32,0.44,1.82,0.44c1.11,0,1.71-0.57,1.95-1.72h1.3 v16.85c-1.72,0-3.5-0.07-5.28-0.18c-1.81-0.15-3.57-0.46-5.29-1c-1.72-0.55-3.35-1.28-4.92-2.27c-1.52-0.98-2.91-2.22-4.13-3.69 c-3.44,2.87-6.91,4.78-10.39,5.74c-3.48,0.93-7.35,1.41-11.58,1.41c-2.65,0-5.38-0.34-8.2-1.09c-2.77-0.67-5.29-1.84-7.55-3.47 c-2.29-1.64-4.12-3.73-5.58-6.3c-1.39-2.51-2.15-5.6-2.15-9.21c0-2.36,0.38-4.57,1.1-6.56c0.7-2,1.69-3.84,2.91-5.48 c1.24-1.64,2.64-3.04,4.32-4.24c1.64-1.17,3.39-2.16,5.25-2.88c-1.41-1.32-2.65-2.83-3.69-4.62c-1.04-1.76-1.56-3.71-1.56-5.85 c0-3.27,0.6-5.94,1.87-8.04c1.27-2.09,2.87-3.72,4.83-4.94c2-1.18,4.17-1.99,6.58-2.44c2.43-0.47,4.73-0.68,6.96-0.68 c2.29,0,4.6,0.2,6.89,0.68c2.31,0.44,4.4,1.23,6.3,2.4c1.9,1.13,3.44,2.71,4.62,4.73c1.17,2,1.79,4.62,1.79,7.8 c0,1.55-0.27,3.01-0.81,4.36c-0.54,1.34-1.25,2.59-2.1,3.68c-0.87,1.13-1.83,2.09-2.9,3.03c-1.11,0.91-2.17,1.7-3.25,2.45 c1.23,1.13,2.36,2.45,3.43,3.92c1.1,1.46,2.13,2.93,3.15,4.31c2.5-4.21,5.36-8.01,8.51-11.49c3.16-3.5,6.79-6.32,10.88-8.45 v21.18H415.39z M383.85,94.14c2.29-1.19,4.07-2.74,5.36-4.59c-2.19-7.24-6.18-10.84-11.95-10.84c-2.72,0-4.98,0.76-6.77,2.25 c-1.78,1.53-2.71,3.64-2.71,6.36c0,2.7,0.92,4.78,2.71,6.31c1.79,1.52,4.06,2.28,6.77,2.28 C379.36,95.92,381.51,95.32,383.85,94.14 M374.79,54.36c-1.57,1.16-2.44,2.96-2.58,5.42c0.14,2.46,1.01,4.25,2.58,5.41 c1.6,1.14,3.18,1.72,4.85,1.72c1.65,0,3.27-0.57,4.84-1.72c1.59-1.16,2.46-2.95,2.59-5.41c-0.13-2.46-1-4.26-2.59-5.42 c-1.57-1.15-3.19-1.7-4.84-1.7C377.97,52.66,376.39,53.21,374.79,54.36"></path> </g> </g> </g> </svg> 